<?xml version="1.0" encoding="utf-8"?>
<!-- Generator: Adobe Illustrator 22.1.0, SVG Export Plug-In . SVG Version: 6.00 Build 0)  -->
<svg version="1.1" id="图层_1" xmlns="http://www.w3.org/2000/svg" xmlns:xlink="http://www.w3.org/1999/xlink" x="0px" y="0px"
	 viewBox="0 0 512 512" style="enable-background:new 0 0 512 512;" xml:space="preserve">
<style type="text/css">
	.st0{display:none;fill:none;stroke:#2CDDC7;stroke-miterlimit:10;}
	.st1{fill:#A7C9D4;}
	.st2{fill:#FFFFFF;}
	.st3{fill:#FFDF7B;}
	.st4{fill:#454E51;}
	.st5{fill:#3E4D56;}
	.st6{fill:#F7FEFF;}
	.st7{fill:#D87760;}
	.st8{fill:#F7A28D;}
	.st9{fill:#F58E6F;}
	.st10{fill:#F5A79B;}
</style>
<rect x="36.5" y="38.5" class="st0" width="435" height="435"/>
<g>
	<rect x="182.8" y="103.3" class="st2" width="187" height="151"/>
	<rect x="183" y="257" class="st2" width="187" height="151"/>
	<rect x="212.8" y="120.3" class="st1" width="161" height="131"/>
	<rect x="211.8" y="277.3" class="st3" width="162" height="128.7"/>
	
		<rect x="245.5" y="-19.6" transform="matrix(6.123234e-17 -1 1 6.123234e-17 148.4448 351.2135)" class="st4" width="8.7" height="241.9"/>
	
		<rect x="271.5" y="160.8" transform="matrix(6.123234e-17 -1 1 6.123234e-17 20.0554 531.6029)" class="st4" width="8.7" height="189.9"/>
	<rect x="240.5" y="40.3" class="st4" width="8.7" height="60"/>
	<rect x="176.5" y="97.3" class="st4" width="8.7" height="317"/>
	<rect x="293.5" y="40.3" class="st4" width="8.7" height="60"/>
	
		<rect x="245.5" y="289.6" transform="matrix(-1.836970e-16 1 -1 -1.836970e-16 660.4448 160.7865)" class="st4" width="8.7" height="241.9"/>
	<rect x="240.5" y="409.3" class="st4" width="8.7" height="62.5"/>
	<rect x="293.5" y="409.3" class="st4" width="8.7" height="62.5"/>
	<rect x="370.5" y="105.3" class="st4" width="8.7" height="146"/>
	<rect x="370.5" y="260.3" class="st4" width="8.7" height="146"/>
</g>
</svg>
